<svg width="25" height="24" viewBox="0 0 25 24" fill="none" xmlns="http://www.w3.org/2000/svg">
<path d="M21.7 2H3.3C2.8575 2 2.5 2.3575 2.5 2.8V21.2C2.5 21.6425 2.8575 22 3.3 22H21.7C22.1425 22 22.5 21.6425 22.5 21.2V2.8C22.5 2.3575 22.1425 2 21.7 2ZM8.4325 19.0425H5.465V9.4975H8.4325V19.0425ZM6.95 8.1925C6.60982 8.1925 6.27727 8.09162 5.99442 7.90263C5.71157 7.71363 5.49111 7.445 5.36093 7.13072C5.23074 6.81643 5.19668 6.47059 5.26305 6.13694C5.32942 5.8033 5.49323 5.49682 5.73378 5.25628C5.97432 5.01573 6.2808 4.85192 6.61444 4.78555C6.94809 4.71918 7.29393 4.75324 7.60822 4.88343C7.9225 5.01361 8.19113 5.23407 8.38013 5.51692C8.56912 5.79977 8.67 6.13232 8.67 6.4725C8.6675 7.4225 7.8975 8.1925 6.95 8.1925ZM19.5425 19.0425H16.5775V14.4C16.5775 13.2925 16.5575 11.87 15.035 11.87C13.4925 11.87 13.255 13.075 13.255 14.32V19.0425H10.2925V9.4975H13.1375V10.8025H13.1775C13.5725 10.0525 14.54 9.26 15.985 9.26C18.99 9.26 19.5425 11.2375 19.5425 13.8075V19.0425Z" fill="#00ADBB"/>
</svg>
