<svg width="73" height="72" viewBox="0 0 73 72" fill="none" xmlns="http://www.w3.org/2000/svg">
<path d="M60.8929 60.0001H11.6071C8.60714 60.0001 6.25 57.3601 6.25 54.0001V51.6001C6.25 50.8801 6.67857 50.4001 7.32143 50.4001H31.9643C32.6071 50.4001 33.0357 50.8801 33.0357 51.6001C33.0357 52.3201 33.4643 52.8001 34.1071 52.8001H38.3929C39.0357 52.8001 39.4643 52.3201 39.4643 51.6001C39.4643 50.8801 39.8929 50.4001 40.5357 50.4001H65.1786C65.8214 50.4001 66.25 50.8801 66.25 51.6001V54.0001C66.25 57.3601 63.8929 60.0001 60.8929 60.0001ZM8.39286 52.8001V54.0001C8.39286 56.0401 9.78571 57.6001 11.6071 57.6001H60.8929C62.7143 57.6001 64.1071 56.0401 64.1071 54.0001V52.8001H41.3929C40.9643 54.2401 39.7857 55.2001 38.3929 55.2001H34.1071C32.7143 55.2001 31.5357 54.2401 31.1071 52.8001H8.39286Z" fill="#12284C"/>
<path d="M12.7479 52.7997C12.1222 52.7997 11.7051 52.3797 11.7051 51.7497V23.3997C11.7051 21.0897 13.5821 19.1997 15.8762 19.1997H46.1168C46.7425 19.1997 47.1596 19.6197 47.1596 20.2497C47.1596 20.8797 46.7425 21.2997 46.1168 21.2997H15.8762C14.7291 21.2997 13.7906 22.2447 13.7906 23.3997V51.7497C13.7906 52.3797 13.3735 52.7997 12.7479 52.7997Z" fill="#12284C"/>
<path d="M15.4988 48C15.1787 48 14.9652 47.8941 14.7518 47.6824C14.3249 47.2588 14.3249 46.6235 14.7518 46.2L27.5581 33.4941C27.985 33.0706 28.6253 33.0706 29.0522 33.4941L36.8427 41.2235L57.4395 20.7882C57.8664 20.3647 58.5067 20.3647 58.9336 20.7882L61.3882 23.2235V14.1176H52.2103L54.6648 16.5529C55.0917 16.9765 55.0917 17.6118 54.6648 18.0353L37.5897 34.9765C37.1629 35.4 36.5226 35.4 36.0957 34.9765L28.3052 27.2471L16.2459 39.2118C15.819 39.6353 15.1787 39.6353 14.7518 39.2118C14.3249 38.7882 14.3249 38.1529 14.7518 37.7294L27.5581 25.0235C27.985 24.6 28.6253 24.6 29.0522 25.0235L36.8427 32.7529L52.4237 17.2941L48.902 13.8C48.5818 13.4824 48.4751 13.0588 48.6886 12.6353C48.7953 12.2118 49.2222 12 49.649 12H62.4554C63.0957 12 63.5226 12.4235 63.5226 13.0588V25.7647C63.5226 26.1882 63.3091 26.6118 62.8822 26.7176C62.4554 26.9294 62.0285 26.8235 61.7083 26.5059L58.1866 23.0118L37.5897 43.4471C37.1629 43.8706 36.5226 43.8706 36.0957 43.4471L28.3052 35.7176L16.2459 47.6824C16.0324 47.8941 15.819 48 15.4988 48Z" fill="white"/>
</svg>
