<svg width="24" height="25" viewBox="0 0 24 25" fill="none" xmlns="http://www.w3.org/2000/svg">
<path fill-rule="evenodd" clip-rule="evenodd" d="M2.48749 3.00881C2.79972 2.69636 3.22314 2.52084 3.66464 2.52084C4.10613 2.52084 4.52955 2.69636 4.84178 3.00881L11.9896 10.1638L19.1374 3.00881C19.291 2.84963 19.4747 2.72266 19.6778 2.63531C19.881 2.54796 20.0995 2.50199 20.3205 2.50006C20.5416 2.49814 20.7609 2.54031 20.9655 2.62411C21.1701 2.70791 21.356 2.83167 21.5123 2.98816C21.6687 3.14464 21.7923 3.33073 21.876 3.53556C21.9597 3.74038 22.0019 3.95985 21.9999 4.18115C21.998 4.40245 21.9521 4.62115 21.8648 4.82449C21.7776 5.02783 21.6507 5.21174 21.4917 5.36548L14.3439 12.5205L21.4917 19.6755C21.795 19.9898 21.9628 20.4108 21.959 20.8478C21.9552 21.2848 21.7801 21.7028 21.4714 22.0118C21.1627 22.3209 20.7451 22.4961 20.3086 22.4999C19.872 22.5037 19.4514 22.3357 19.1374 22.0321L11.9896 14.8771L4.84178 22.0321C4.52776 22.3357 4.10718 22.5037 3.67063 22.4999C3.23407 22.4961 2.81647 22.3209 2.50777 22.0118C2.19907 21.7028 2.02396 21.2848 2.02017 20.8478C2.01637 20.4108 2.1842 19.9898 2.48749 19.6755L9.63529 12.5205L2.48749 5.36548C2.17535 5.05293 2 4.62909 2 4.18715C2 3.74521 2.17535 3.32136 2.48749 3.00881Z" fill="#00ADBB"/>
</svg>
