<svg width="20" height="21" viewBox="0 0 20 21" fill="none" xmlns="http://www.w3.org/2000/svg">
<path d="M18.0599 17.2451L14.9127 14.1073C15.9281 12.8137 16.4791 11.2162 16.477 9.57168C16.477 8.10711 16.0427 6.67542 15.2291 5.45767C14.4154 4.23992 13.2589 3.2908 11.9058 2.73033C10.5527 2.16986 9.0638 2.02322 7.62737 2.30895C6.19094 2.59467 4.87149 3.29993 3.83588 4.33554C2.80027 5.37115 2.09501 6.6906 1.80928 8.12703C1.52356 9.56347 1.6702 11.0524 2.23067 12.4055C2.79114 13.7586 3.74026 14.9151 4.95801 15.7287C6.17576 16.5424 7.60744 16.9767 9.07202 16.9767C10.7165 16.9787 12.314 16.4278 13.6076 15.4124L16.7455 18.5595C16.8315 18.6463 16.9339 18.7151 17.0467 18.7621C17.1595 18.8091 17.2805 18.8333 17.4027 18.8333C17.5249 18.8333 17.6458 18.8091 17.7586 18.7621C17.8714 18.7151 17.9738 18.6463 18.0599 18.5595C18.1466 18.4735 18.2155 18.3711 18.2625 18.2583C18.3095 18.1455 18.3337 18.0245 18.3337 17.9023C18.3337 17.7801 18.3095 17.6592 18.2625 17.5464C18.2155 17.4336 18.1466 17.3312 18.0599 17.2451ZM3.51825 9.57168C3.51825 8.47325 3.84397 7.39949 4.45423 6.48617C5.06448 5.57286 5.93186 4.86102 6.94668 4.44067C7.9615 4.02032 9.07818 3.91034 10.1555 4.12463C11.2328 4.33892 12.2224 4.86787 12.9991 5.64458C13.7758 6.42128 14.3048 7.41087 14.5191 8.4882C14.7334 9.56552 14.6234 10.6822 14.203 11.697C13.7827 12.7118 13.0708 13.5792 12.1575 14.1895C11.2442 14.7997 10.1704 15.1254 9.07202 15.1254C7.59907 15.1254 6.18644 14.5403 5.14491 13.4988C4.10338 12.4573 3.51825 11.0446 3.51825 9.57168Z" fill="white"/>
</svg>
