<svg width="65" height="64" viewBox="0 0 65 64" fill="none" xmlns="http://www.w3.org/2000/svg">
<g clip-path="url(#clip0_3100_25927)">
<path d="M47.0798 31.68C47.494 31.68 47.8298 31.3442 47.8298 30.93C47.8298 30.5158 47.494 30.18 47.0798 30.18H46.2266V22.9139C46.2266 22.0583 45.5306 21.3623 44.675 21.3623H41.4686C40.613 21.3623 39.917 22.0583 39.917 22.9139V30.18H38.2106V26.9219C38.2106 26.0663 37.5146 25.3703 36.659 25.3703H33.4526C32.597 25.3703 31.901 26.0663 31.901 26.9219V30.18H30.1945V22.1123C30.1945 21.6981 29.8587 21.3623 29.4445 21.3623C29.0303 21.3623 28.6945 21.6981 28.6945 22.1123V30.18H25.3848V17.3026C25.3848 17.2741 25.4079 17.251 25.4364 17.251H28.6428C28.6713 17.251 28.6944 17.2741 28.6944 17.3026V18.9059C28.6944 19.3201 29.0302 19.6559 29.4444 19.6559C29.8586 19.6559 30.1944 19.3201 30.1944 18.9059V17.3026C30.1944 16.447 29.4984 15.751 28.6428 15.751H25.4364C24.5808 15.751 23.8848 16.447 23.8848 17.3026V30.18H22.1784V23.7155C22.1784 22.8599 21.4824 22.1639 20.6268 22.1639H17.4204C16.5648 22.1639 15.8688 22.8599 15.8688 23.7155V30.18H15.0156C14.6014 30.18 14.2656 30.5158 14.2656 30.93C14.2656 31.3442 14.6014 31.68 15.0156 31.68H47.0798ZM41.4169 22.9139C41.4169 22.8854 41.44 22.8623 41.4685 22.8623H44.6749C44.7034 22.8623 44.7265 22.8854 44.7265 22.9139V30.18H41.4168V22.9139H41.4169ZM33.4008 26.9219C33.4008 26.8934 33.4239 26.8703 33.4524 26.8703H36.6588C36.6873 26.8703 36.7104 26.8934 36.7104 26.9219V30.18H33.4007V26.9219H33.4008ZM17.3686 23.7155C17.3686 23.687 17.3917 23.6639 17.4202 23.6639H20.6266C20.6551 23.6639 20.6782 23.687 20.6782 23.7155V30.18H17.3685V23.7155H17.3686Z" fill="#00ADBB"/>
<path d="M42.2699 52.6252H12.6102C12.5817 52.6252 12.5586 52.6021 12.5586 52.5736V7.68319C12.5586 7.65469 12.5817 7.63159 12.6102 7.63159H40.4723C40.5556 7.63159 40.6374 7.63969 40.7182 7.65169V14.8978C40.7182 15.7534 41.4142 16.4494 42.2698 16.4494H49.5159C49.5279 16.5302 49.5359 16.612 49.5359 16.6952V46.9623C49.5359 47.3765 49.8717 47.7123 50.2859 47.7123C50.7001 47.7123 51.0359 47.3765 51.0359 46.9623V16.6951C51.0359 15.8524 50.7077 15.0602 50.1119 14.4643L42.7031 7.05559C42.1072 6.45969 41.3149 6.13159 40.4723 6.13159H12.6102C11.7546 6.13159 11.0586 6.82759 11.0586 7.68319V52.5735C11.0586 53.4291 11.7546 54.1251 12.6102 54.1251H42.2699C42.6841 54.1251 43.0199 53.7893 43.0199 53.3751C43.0199 52.9609 42.6841 52.6252 42.2699 52.6252ZM48.4757 14.9493H42.2699C42.2414 14.9493 42.2183 14.9262 42.2183 14.8977V8.69199L48.4757 14.9493Z" fill="#00ADBB"/>
<path d="M52.751 53.3146L47.1401 47.7037C46.6959 47.2589 46.1048 47.014 45.4759 47.014C45.1062 47.014 44.7499 47.0993 44.4286 47.2593L43.0242 45.8549C44.0228 44.6235 44.6227 43.0564 44.6227 41.3511C44.6227 37.4014 41.4094 34.1882 37.4598 34.1882C33.5101 34.1882 30.2969 37.4015 30.2969 41.3511C30.2969 45.3007 33.5102 48.514 37.4598 48.514C39.165 48.514 40.7322 47.9141 41.9636 46.9155L43.3681 48.32C43.208 48.6414 43.1228 48.9977 43.1228 49.3672C43.1228 49.9959 43.3677 50.5868 43.8122 51.031L49.4231 56.642C49.8672 57.0867 50.4583 57.3317 51.0873 57.3317C51.7163 57.3317 52.3073 57.0868 52.751 56.6425C53.1956 56.1981 53.4405 55.6071 53.4405 54.9784C53.4405 54.3497 53.1954 53.7588 52.751 53.3146ZM31.7968 41.3511C31.7968 38.2286 34.3372 35.6882 37.4597 35.6882C40.5822 35.6882 43.1226 38.2286 43.1226 41.3511C43.1226 44.4736 40.5822 47.014 37.4597 47.014C34.3371 47.014 31.7968 44.4736 31.7968 41.3511ZM44.6226 49.3672C44.6226 49.1393 44.7114 48.9252 44.8729 48.7636C45.0337 48.6026 45.2479 48.5139 45.4758 48.5139C45.7038 48.5139 45.9178 48.6026 46.079 48.7639L46.8012 49.4861L45.5948 50.6925L44.8724 49.9701C44.7113 49.8092 44.6226 49.595 44.6226 49.3672ZM51.69 55.582C51.5292 55.743 51.3151 55.8317 51.0871 55.8317C50.8591 55.8317 50.6451 55.743 50.4839 55.5817L46.6555 51.7532L47.8619 50.5468L51.6905 54.3754C51.8516 54.5364 51.9404 54.7506 51.9404 54.9784C51.9404 55.2062 51.8516 55.4205 51.69 55.582Z" fill="#00ADBB"/>
<path d="M17.4199 35.688H19.0231C19.4373 35.688 19.7731 35.3522 19.7731 34.938C19.7731 34.5238 19.4373 34.188 19.0231 34.188H17.4199C17.0057 34.188 16.6699 34.5238 16.6699 34.938C16.6699 35.3522 17.0057 35.688 17.4199 35.688Z" fill="#00ADBB"/>
<path d="M17.4199 38.8945H19.0231C19.4373 38.8945 19.7731 38.5587 19.7731 38.1445C19.7731 37.7303 19.4373 37.3945 19.0231 37.3945H17.4199C17.0057 37.3945 16.6699 37.7303 16.6699 38.1445C16.6699 38.5587 17.0057 38.8945 17.4199 38.8945Z" fill="#00ADBB"/>
<path d="M30.195 34.938C30.195 34.5238 29.8592 34.188 29.445 34.188H22.2305C21.8163 34.188 21.4805 34.5238 21.4805 34.938C21.4805 35.3522 21.8163 35.688 22.2305 35.688H29.445C29.8592 35.688 30.195 35.3523 30.195 34.938Z" fill="#00ADBB"/>
<path d="M28.5918 38.1445C28.5918 37.7303 28.256 37.3945 27.8418 37.3945H22.2305C21.8163 37.3945 21.4805 37.7303 21.4805 38.1445C21.4805 38.5587 21.8163 38.8945 22.2305 38.8945H27.8418C28.256 38.8945 28.5918 38.5587 28.5918 38.1445Z" fill="#00ADBB"/>
<path d="M17.4199 45.3074H24.6344C25.0486 45.3074 25.3844 44.9716 25.3844 44.5574C25.3844 44.1432 25.0486 43.8074 24.6344 43.8074H17.4199C17.0057 43.8074 16.6699 44.1432 16.6699 44.5574C16.6699 44.9716 17.0057 45.3074 17.4199 45.3074Z" fill="#00ADBB"/>
<path d="M17.4199 42.1008H19.0231C19.4373 42.1008 19.7731 41.765 19.7731 41.3508C19.7731 40.9366 19.4373 40.6008 19.0231 40.6008H17.4199C17.0057 40.6008 16.6699 40.9366 16.6699 41.3508C16.6699 41.765 17.0057 42.1008 17.4199 42.1008Z" fill="#00ADBB"/>
<path d="M27.7902 41.3508C27.7902 40.9366 27.4544 40.6008 27.0402 40.6008H22.2305C21.8163 40.6008 21.4805 40.9366 21.4805 41.3508C21.4805 41.765 21.8163 42.1008 22.2305 42.1008H27.0402C27.4544 42.1008 27.7902 41.765 27.7902 41.3508Z" fill="#00ADBB"/>
<path d="M27.8415 14.0444C28.2557 14.0444 28.5915 13.7086 28.5915 13.2944C28.5915 12.8802 28.2557 12.5444 27.8415 12.5444H26.2383C25.8241 12.5444 25.4883 12.8802 25.4883 13.2944C25.4883 13.7086 25.8241 14.0444 26.2383 14.0444H27.8415Z" fill="#00ADBB"/>
<path d="M35.8571 23.6638C36.2713 23.6638 36.6071 23.328 36.6071 22.9138C36.6071 22.4996 36.2713 22.1638 35.8571 22.1638H34.2539C33.8397 22.1638 33.5039 22.4996 33.5039 22.9138C33.5039 23.328 33.8397 23.6638 34.2539 23.6638H35.8571Z" fill="#00ADBB"/>
<path d="M19.8239 20.4573C20.2381 20.4573 20.5739 20.1215 20.5739 19.7073C20.5739 19.2931 20.2381 18.9573 19.8239 18.9573H18.2207C17.8065 18.9573 17.4707 19.2931 17.4707 19.7073C17.4707 20.1215 17.8065 20.4573 18.2207 20.4573H19.8239Z" fill="#00ADBB"/>
<path d="M43.8727 19.6558C44.2869 19.6558 44.6227 19.32 44.6227 18.9058C44.6227 18.4916 44.2869 18.1558 43.8727 18.1558H42.2695C41.8553 18.1558 41.5195 18.4916 41.5195 18.9058C41.5195 19.32 41.8553 19.6558 42.2695 19.6558H43.8727Z" fill="#00ADBB"/>
</g>
<defs>
<clipPath id="clip0_3100_25927">
<rect width="51.2" height="51.2" fill="white" transform="translate(6.65039 6.13159)"/>
</clipPath>
</defs>
</svg>
