<svg width="65" height="64" viewBox="0 0 65 64" fill="none" xmlns="http://www.w3.org/2000/svg">
<g clip-path="url(#clip0_3100_25935)">
<path d="M54.7557 13.8978L47.6785 6.82079C47.234 6.37639 46.6431 6.13159 46.0145 6.13159H16.2175C14.92 6.13159 13.8643 7.18729 13.8643 8.48479V31.7832H12.2095C10.4699 31.7832 9.05469 33.1985 9.05469 34.938V49.367C9.05469 51.1066 10.4699 52.5219 12.2095 52.5219H41.8692C43.1668 52.5219 44.2224 51.4662 44.2224 50.1687V38.9462C44.2224 37.6486 43.1667 36.5929 41.8692 36.5929H12.2095C11.297 36.5929 10.5547 35.8506 10.5547 34.9381C10.5547 34.0256 11.297 33.2833 12.2095 33.2833H13.8643V34.1368C13.8643 34.551 14.2001 34.8868 14.6143 34.8868C15.0285 34.8868 15.3643 34.551 15.3643 34.1368V8.48479C15.3643 8.01429 15.7471 7.63159 16.2175 7.63159H45.1272V14.8977C45.1272 15.7533 45.8232 16.4494 46.6788 16.4494H53.9449V54.9784C53.9449 55.4489 53.5621 55.8316 53.0917 55.8316H16.2175C15.747 55.8316 15.3643 55.4489 15.3643 54.9784C15.3643 54.5642 15.0285 54.2284 14.6143 54.2284C14.2001 54.2284 13.8643 54.5642 13.8643 54.9784C13.8643 56.276 14.92 57.3316 16.2175 57.3316H53.0917C54.3893 57.3316 55.4449 56.2759 55.4449 54.9784V15.5618C55.445 14.9333 55.2002 14.3423 54.7557 13.8978ZM12.2095 38.0929H41.8692C42.3397 38.0929 42.7224 38.4757 42.7224 38.9462V50.1688C42.7224 50.6393 42.3396 51.022 41.8692 51.022H12.2095C11.297 51.022 10.5547 50.2796 10.5547 49.3671V37.6231C11.036 37.921 11.603 38.0929 12.2095 38.0929ZM46.6272 14.8977V7.89089L53.6859 14.9494H46.6788C46.6504 14.9494 46.6272 14.9262 46.6272 14.8977Z" fill="#00ADBB"/>
<path d="M25.8359 32.4817H43.4713C43.8855 32.4817 44.2213 32.1459 44.2213 31.7317C44.2213 31.3175 43.8855 30.9817 43.4713 30.9817H25.8359C25.4217 30.9817 25.0859 31.3175 25.0859 31.7317C25.0859 32.1459 25.4217 32.4817 25.8359 32.4817Z" fill="#00ADBB"/>
<path d="M25.8359 28.4734H43.4713C43.8855 28.4734 44.2213 28.1376 44.2213 27.7234C44.2213 27.3092 43.8855 26.9734 43.4713 26.9734H25.8359C25.4217 26.9734 25.0859 27.3092 25.0859 27.7234C25.0859 28.1376 25.4217 28.4734 25.8359 28.4734Z" fill="#00ADBB"/>
<path d="M37.0586 24.4653H43.4715C43.8857 24.4653 44.2215 24.1295 44.2215 23.7153C44.2215 23.301 43.8857 22.9653 43.4715 22.9653H37.0586C36.6444 22.9653 36.3086 23.301 36.3086 23.7153C36.3086 24.1294 36.6444 24.4653 37.0586 24.4653Z" fill="#00ADBB"/>
<path d="M37.0586 20.4573H43.4715C43.8857 20.4573 44.2215 20.1216 44.2215 19.7073C44.2215 19.2931 43.8857 18.9573 43.4715 18.9573H37.0586C36.6444 18.9573 36.3086 19.2931 36.3086 19.7073C36.3086 20.1215 36.6444 20.4573 37.0586 20.4573Z" fill="#00ADBB"/>
<path d="M35.7594 48.6428C36.6573 48.6428 37.4629 48.3481 38.0888 47.7906C38.2114 47.6813 38.328 47.5611 38.4353 47.4332C38.7015 47.1158 38.66 46.6428 38.3426 46.3766C38.0252 46.1104 37.5521 46.1519 37.286 46.4693C37.2253 46.5418 37.1597 46.6094 37.0911 46.6705C36.7392 46.9839 36.2911 47.1429 35.7593 47.1429C34.3337 47.1429 33.1739 45.9831 33.1739 44.5574C33.1739 43.1318 34.3337 41.972 35.7593 41.972C36.2775 41.972 36.7772 42.1245 37.2043 42.4131C37.5476 42.6449 38.0138 42.5547 38.2456 42.2115C38.4775 41.8682 38.3873 41.402 38.044 41.1701C37.3679 40.7133 36.5779 40.4719 35.7592 40.4719C33.5065 40.4719 31.6738 42.3046 31.6738 44.5573C31.6738 46.81 33.5066 48.6428 35.7594 48.6428Z" fill="#00ADBB"/>
<path d="M26.232 48.6428C28.4847 48.6428 30.3174 46.81 30.3174 44.5573C30.3174 42.3046 28.4847 40.4719 26.232 40.4719C23.9793 40.4719 22.1465 42.3046 22.1465 44.5573C22.1465 46.81 23.9793 48.6428 26.232 48.6428ZM26.232 41.9718C27.6576 41.9718 28.8174 43.1317 28.8174 44.5572C28.8174 45.9829 27.6576 47.1427 26.232 47.1427C24.8064 47.1427 23.6465 45.9829 23.6465 44.5572C23.6465 43.1317 24.8064 41.9718 26.232 41.9718Z" fill="#00ADBB"/>
<path d="M26.6375 24.4655H32.2488C33.1044 24.4655 33.8004 23.7694 33.8004 22.9138V20.509C33.8004 19.6534 33.1044 18.9573 32.2488 18.9573H26.6375C25.7819 18.9573 25.0859 19.6534 25.0859 20.509V22.9138C25.0859 23.7694 25.782 24.4655 26.6375 24.4655ZM26.5859 20.509C26.5859 20.4805 26.609 20.4573 26.6375 20.4573H32.2488C32.2773 20.4573 32.3004 20.4804 32.3004 20.509V22.9138C32.3004 22.9423 32.2773 22.9655 32.2488 22.9655H26.6375C26.609 22.9655 26.5859 22.9424 26.5859 22.9138V20.509Z" fill="#00ADBB"/>
<path d="M14.6791 47.797C14.6798 47.9959 14.7596 48.1865 14.9007 48.3266C15.0412 48.4661 15.2312 48.5443 15.4291 48.5443H15.4319C15.4873 48.5441 16.7942 48.5391 17.3161 48.5299C19.2268 48.4965 20.6136 46.8259 20.6136 44.5574C20.6136 42.1728 19.2616 40.5706 17.2494 40.5706H15.416C15.2168 40.5706 15.0259 40.6498 14.8852 40.7908C14.7445 40.9317 14.6656 41.1228 14.666 41.322C14.666 41.322 14.6707 43.8121 14.6707 44.5502C14.6707 45.4503 14.6791 47.797 14.6791 47.797ZM17.2495 42.0707C18.624 42.0707 19.1137 43.3554 19.1137 44.5575C19.1137 46.2436 18.1977 47.0143 17.29 47.0302C17.0353 47.0346 16.5756 47.0382 16.1766 47.0406C16.1741 46.2749 16.1707 45.1211 16.1707 44.5504C16.1707 44.0737 16.1687 42.867 16.1674 42.0707H17.2495Z" fill="#00ADBB"/>
</g>
<defs>
<clipPath id="clip0_3100_25935">
<rect width="51.2" height="51.2" fill="white" transform="translate(6.65039 6.13159)"/>
</clipPath>
</defs>
</svg>
