<svg width="65" height="64" viewBox="0 0 65 64" fill="none" xmlns="http://www.w3.org/2000/svg">
<g clip-path="url(#clip0_3100_25943)">
<path d="M48.7591 58.6666H15.7383C14.4459 58.6666 13.3945 57.6152 13.3945 56.3228V28.6927C13.3945 28.2613 13.7443 27.9115 14.1758 27.9115C14.6072 27.9115 14.957 28.2613 14.957 28.6927V56.3228C14.957 56.7537 15.3074 57.1041 15.7383 57.1041H48.7591C49.1899 57.1041 49.5404 56.7537 49.5404 56.3228V45.7239C49.5404 45.2924 49.8902 44.9426 50.3216 44.9426C50.7531 44.9426 51.1029 45.2924 51.1029 45.7239V56.3228C51.1029 57.6152 50.0515 58.6666 48.7591 58.6666ZM35.0896 44.2689C34.6376 44.2689 34.1944 44.092 33.8607 43.7581L29.4777 39.3751H24.3521C23.1724 39.3751 22.1397 38.6226 21.7821 37.5027C21.5586 36.8026 21.3791 36.0398 21.2489 35.2355C21.1799 34.8096 21.4694 34.4085 21.8954 34.3395C22.3207 34.2709 22.7224 34.5599 22.7914 34.986C22.9092 35.714 23.0705 36.4009 23.2706 37.0275C23.4205 37.4972 23.8552 37.8127 24.3521 37.8127H29.0201V26.1872H24.3521C23.8552 26.1872 23.4206 26.5027 23.2706 26.9724C22.9469 27.9858 22.5612 29.6805 22.5612 31.9999C22.5612 32.4314 22.2114 32.7812 21.7799 32.7812C21.3485 32.7812 20.9987 32.4314 20.9987 31.9999C20.9987 29.4794 21.4247 27.6163 21.7821 26.497C22.1397 25.3771 23.1724 24.6246 24.3521 24.6246H29.4777L33.8607 20.2416C34.3602 19.742 35.1048 19.5939 35.7575 19.8642C36.4103 20.1346 36.832 20.7658 36.832 21.4723V42.5274C36.832 43.2339 36.4103 43.8651 35.7575 44.1355C35.5409 44.2252 35.3142 44.2689 35.0896 44.2689ZM30.5824 38.2703L34.9655 42.6534C35.0213 42.7092 35.0865 42.7221 35.1595 42.692C35.2324 42.6618 35.2694 42.6065 35.2694 42.5275V21.4724C35.2694 21.3935 35.2324 21.3381 35.1595 21.3079C35.0866 21.2777 35.0213 21.2906 34.9655 21.3466L30.5824 25.7296V38.2703ZM40.1654 8.91596V15.4895C40.1654 15.9203 40.5158 16.2708 40.9466 16.2708H47.5201C46.5044 15.255 45.1736 13.9242 43.8428 12.5934C42.5119 11.2624 41.1811 9.93169 40.1654 8.91596ZM42.5091 39.7465C42.0777 39.7465 41.7279 39.3967 41.7279 38.9652V25.0346C41.7279 24.6031 42.0777 24.2534 42.5091 24.2534C42.9406 24.2534 43.2904 24.6031 43.2904 25.0346V38.9651C43.2904 39.3967 42.9406 39.7465 42.5091 39.7465ZM38.6029 7.677C38.6029 7.24554 38.2531 6.89575 37.8216 6.89575H15.7383C15.3074 6.89575 14.957 7.24617 14.957 7.677V25.5677C14.957 25.9992 14.6072 26.349 14.1758 26.349C13.7443 26.349 13.3945 25.9992 13.3945 25.5677V7.677C13.3945 6.38461 14.4459 5.33325 15.7383 5.33325H37.8216C38.4475 5.33325 39.0361 5.577 39.4788 6.01961C39.4788 6.01961 39.4788 6.01961 39.4789 6.01971C39.5523 6.09315 42.2499 8.79075 44.9477 11.4885C47.6437 14.1845 50.3397 16.8805 50.4163 16.9572C50.4929 17.0339 50.4164 16.9572 50.4164 16.9573H50.4165C50.8591 17.4 51.1028 17.9885 51.1028 18.6144V42.5988C51.1028 43.0302 50.753 43.38 50.3215 43.38C49.89 43.38 49.5403 43.0302 49.5403 42.5988V18.6145C49.5403 18.183 49.1905 17.8333 48.759 17.8333H40.9465C39.6541 17.8333 38.6028 16.7819 38.6028 15.4895V7.677H38.6029ZM45.6341 36.5893C45.2027 36.5893 44.8529 36.2395 44.8529 35.808V28.1919C44.8529 27.7604 45.2027 27.4106 45.6341 27.4106C46.0656 27.4106 46.4154 27.7604 46.4154 28.1919V35.808C46.4154 36.2395 46.0656 36.5893 45.6341 36.5893ZM39.3841 35.892C38.9527 35.892 38.6029 35.5422 38.6029 35.1108V28.8891C38.6029 28.4576 38.9527 28.1078 39.3841 28.1078C39.8156 28.1078 40.1654 28.4576 40.1654 28.8891V35.1108C40.1654 35.5422 39.8156 35.892 39.3841 35.892Z" fill="#00ADBB"/>
</g>
<defs>
<clipPath id="clip0_3100_25943">
<rect width="42.6667" height="53.3333" fill="white" transform="translate(10.916 5.33325)"/>
</clipPath>
</defs>
</svg>
