<svg width="65" height="64" viewBox="0 0 65 64" fill="none" xmlns="http://www.w3.org/2000/svg">
<g clip-path="url(#clip0_3100_25938)">
<path d="M56.195 13.423L48.8229 6.05117C48.3599 5.58825 47.7444 5.33325 47.0896 5.33325H16.0511C14.6995 5.33325 13.5998 6.43294 13.5998 7.7845V32.0537H11.8761C10.064 32.0537 8.58984 33.5279 8.58984 35.3399V50.3701C8.58984 52.1822 10.064 53.6565 11.8761 53.6565H37.7615C39.1132 53.6565 40.2127 52.5568 40.2127 51.2052V39.5151C40.2127 38.1635 39.1131 37.0638 37.7615 37.0638H11.8761C10.9256 37.0638 10.1523 36.2905 10.1523 35.34C10.1523 34.3895 10.9256 33.6163 11.8761 33.6163H13.5998V34.5053C13.5998 34.9368 13.9496 35.2866 14.3811 35.2866C14.8125 35.2866 15.1623 34.9368 15.1623 34.5053V7.7845C15.1623 7.2944 15.5611 6.89575 16.0511 6.89575H46.1653V14.4646C46.1653 15.3559 46.8903 16.081 47.7816 16.081H55.3504V56.2153C55.3504 56.7054 54.9517 57.1041 54.4617 57.1041H16.0511C15.561 57.1041 15.1623 56.7054 15.1623 56.2153C15.1623 55.7839 14.8125 55.4341 14.3811 55.4341C13.9496 55.4341 13.5998 55.7839 13.5998 56.2153C13.5998 57.567 14.6995 58.6666 16.0511 58.6666H54.4617C55.8134 58.6666 56.9129 57.5669 56.9129 56.2153V15.1564C56.913 14.5017 56.658 13.8861 56.195 13.423ZM11.8761 38.6263H37.7615C38.2516 38.6263 38.6502 39.025 38.6502 39.5151V51.2053C38.6502 51.6954 38.2515 52.0941 37.7615 52.0941H11.8761C10.9256 52.0941 10.1523 51.3208 10.1523 50.3702V38.1369C10.6537 38.4472 11.2443 38.6263 11.8761 38.6263ZM47.7278 14.4646V7.16586L55.0806 14.5185H47.7816C47.752 14.5185 47.7278 14.4943 47.7278 14.4646Z" fill="#00ADBB"/>
<path d="M23.5672 49.4646C23.623 49.4742 23.6682 49.4819 24.4152 49.4819C24.7757 49.4819 25.2997 49.4801 26.0671 49.4758C26.4986 49.4735 26.8464 49.1217 26.844 48.6901C26.8416 48.2586 26.4879 47.9146 26.0584 47.9133C25.5128 47.9163 24.9269 47.9185 24.4805 47.9189V41.9504C24.4805 41.519 24.1307 41.1692 23.6992 41.1692C23.2678 41.1692 22.918 41.519 22.918 41.9504V48.6945C22.918 49.0751 23.1921 49.4003 23.5672 49.4646Z" fill="#00ADBB"/>
<path d="M31.4949 49.4816C32.887 49.4816 34.0556 48.5956 34.2736 47.3749C34.4372 46.4586 34.0181 45.2606 32.3513 44.6458C31.5118 44.3361 30.731 43.9987 30.5025 43.8985C30.287 43.731 30.294 43.4944 30.308 43.3965C30.3268 43.2655 30.421 42.9457 30.8887 42.8048C31.8729 42.5082 32.7786 43.2254 32.8037 43.2456C33.1339 43.5199 33.6242 43.4763 33.9008 43.1473C34.1784 42.8169 34.1357 42.3241 33.8054 42.0465C33.7428 41.9939 32.2502 40.7629 30.438 41.3087C29.5297 41.5823 28.8872 42.2973 28.7613 43.1744C28.6434 43.9961 28.9994 44.7864 29.6905 45.2369C29.7251 45.2594 29.7612 45.2792 29.7989 45.296C29.838 45.3134 30.7656 45.7263 31.8105 46.1117C32.1211 46.2263 32.8332 46.5521 32.7353 47.1002C32.6634 47.5027 32.1798 47.919 31.4946 47.919C30.8065 47.919 30.1436 47.641 29.7215 47.1752C29.4318 46.8555 28.9378 46.8311 28.618 47.1209C28.2983 47.4106 28.2739 47.9047 28.5637 48.2245C29.2772 49.0118 30.3729 49.4816 31.4949 49.4816Z" fill="#00ADBB"/>
<path d="M14.7494 49.3389C14.8861 49.4353 15.0431 49.4815 15.1986 49.4815C15.4442 49.4815 15.6858 49.3661 15.838 49.1501L17.7452 46.4428L19.6495 49.1497C19.8015 49.3659 20.0434 49.4815 20.2891 49.4815C20.4445 49.4815 20.6013 49.4354 20.738 49.3392C21.0909 49.0909 21.1757 48.6036 20.9275 48.2507L18.7011 45.086L20.593 42.4005C20.8415 42.0478 20.757 41.5604 20.4043 41.3119C20.0515 41.0634 19.5641 41.148 19.3156 41.5007L17.7461 43.7286L16.1792 41.501C15.9309 41.1481 15.4435 41.0633 15.0906 41.3115C14.7377 41.5597 14.6529 42.0471 14.9011 42.4L16.7902 45.0853L14.5606 48.2502C14.3121 48.6031 14.3967 49.0904 14.7494 49.3389Z" fill="#00ADBB"/>
<path d="M46.0579 20.3097C46.0579 19.4185 45.3329 18.6934 44.4416 18.6934H26.0713C25.1801 18.6934 24.4551 19.4185 24.4551 20.3097V31.1648C24.4551 32.056 25.1801 32.781 26.0713 32.781H44.4415C45.3328 32.781 46.0578 32.056 46.0578 31.1648V20.3097H46.0579ZM32.6977 27.0435V24.4309H37.8153V27.0435H32.6977ZM37.8153 28.606V31.2186H32.6977V28.606H37.8153ZM26.0176 24.4311H31.1352V27.0437H26.0176V24.4311ZM32.6977 22.8686V20.256H37.8153V22.8686H32.6977ZM39.3778 24.4311H44.4954V27.0437H39.3778V24.4311ZM44.4954 20.3097V22.8685H39.3778V20.2559H44.4416C44.4712 20.256 44.4954 20.28 44.4954 20.3097ZM26.0713 20.256H31.1352V22.8686H26.0176V20.3098C26.0176 20.28 26.0416 20.256 26.0713 20.256ZM26.0176 31.1649V28.6061H31.1352V31.2186H26.0713C26.0416 31.2186 26.0176 31.1946 26.0176 31.1649ZM44.4416 31.2186H39.3778V28.606H44.4954V31.1648C44.4954 31.1946 44.4712 31.2186 44.4416 31.2186Z" fill="#00ADBB"/>
</g>
<defs>
<clipPath id="clip0_3100_25938">
<rect width="53.3333" height="53.3333" fill="white" transform="translate(6.08398 5.33325)"/>
</clipPath>
</defs>
</svg>
